<?xml version="1.0" encoding="UTF-8" standalone="no"?>
<!-- Created with Inkscape (http://www.inkscape.org/) -->

<svg
   width="512"
   height="512"
   viewBox="0 0 512 512"
   version="1.1"
   id="svg1"
   inkscape:version="1.4.2 (ebf0e940d0, 2025-05-08)"
   sodipodi:docname="logo.svg"
   xmlns:inkscape="http://www.inkscape.org/namespaces/inkscape"
   xmlns:sodipodi="http://sodipodi.sourceforge.net/DTD/sodipodi-0.dtd"
   xmlns="http://www.w3.org/2000/svg"
   xmlns:svg="http://www.w3.org/2000/svg">
  <sodipodi:namedview
     id="namedview1"
     pagecolor="#ffffff"
     bordercolor="#000000"
     borderopacity="0.25"
     inkscape:showpageshadow="2"
     inkscape:pageopacity="0.0"
     inkscape:pagecheckerboard="0"
     inkscape:deskcolor="#d1d1d1"
     inkscape:document-units="px"
     inkscape:lockguides="true"
     inkscape:zoom="1.1722367"
     inkscape:cx="225.21049"
     inkscape:cy="277.24776"
     inkscape:window-width="1896"
     inkscape:window-height="1027"
     inkscape:window-x="0"
     inkscape:window-y="0"
     inkscape:window-maximized="1"
     inkscape:current-layer="layer1" />
  <defs
     id="defs1">
    <inkscape:path-effect
       effect="spiro"
       id="path-effect8"
       is_visible="true"
       lpeversion="1" />
    <inkscape:path-effect
       effect="spiro"
       id="path-effect6"
       is_visible="true"
       lpeversion="1" />
  </defs>
  <g
     inkscape:label="Layer 1"
     inkscape:groupmode="layer"
     id="layer1">
    <path
       style="fill:#fb923c;fill-opacity:1"
       id="path3"
       d="m 465.77624,338.24225 a 85.306999,49.904594 0 0 1 -0.46732,5.21645"
       sodipodi:type="arc"
       sodipodi:arc-type="arc"
       sodipodi:open="true"
       sodipodi:start="0"
       sodipodi:end="0.10471976"
       sodipodi:ry="49.904594"
       sodipodi:rx="85.306999"
       sodipodi:cy="338.24225"
       sodipodi:cx="380.46924" />
    <g
       id="g8"
       transform="matrix(2.0624094,0,0,2.0833334,-267.80443,-282.57945)"
       style="fill:#fb923c;fill-opacity:1">
      <rect
         style="fill:#fb923c;fill-opacity:1"
         id="rect1"
         width="214.12057"
         height="29.004379"
         x="138.19734"
         y="145.87497" />
      <rect
         style="fill:#fb923c;fill-opacity:1"
         id="rect2"
         width="20.47368"
         height="185.96925"
         x="232.88811"
         y="174.87935" />
      <path
         style="fill:#fb923c;fill-opacity:1"
         id="path2"
         sodipodi:type="arc"
         sodipodi:cx="213.2675"
         sodipodi:cy="199.19185"
         sodipodi:rx="81.894722"
         sodipodi:ry="89.145813"
         sodipodi:start="0"
         sodipodi:end="0.10471976"
         sodipodi:open="true"
         sodipodi:arc-type="arc"
         d="m 295.16222,199.19185 a 81.894722,89.145813 0 0 1 -0.44862,9.31827" />
      <path
         style="fill:#fb923c;fill-opacity:1"
         d="m 160.37716,35.82894 c -1.19735,-3.162371 -3.92571,-5.621296 -7.07216,-6.859875 -3.14645,-1.238578 -6.6693,-1.329267 -9.98294,-0.655415 -6.62727,1.347704 -12.25382,5.530541 -17.92077,9.22143 -5.13057,3.341546 -10.47578,6.360827 -15.43287,9.954709 -4.95709,3.593882 -9.5683,7.82791 -12.71844,13.078181 -5.018796,8.364729 -5.916517,18.620456 -4.995753,28.331748 0.920763,9.711292 3.513576,19.182362 4.995753,28.823942 2.655663,17.27513 1.745323,35.07784 5.97149,52.03727 3.00527,12.06001 8.63942,23.51947 16.76803,32.92166 8.1286,9.40219 18.78134,16.69459 30.65494,20.36789 11.8736,3.67329 24.9467,3.64002 36.63432,-0.58786 11.68762,-4.22788 21.87469,-12.71547 27.69488,-23.69731 5.21732,-9.84433 6.84022,-21.31856 6.03791,-32.43105 -0.8023,-11.11249 -3.92187,-21.93699 -7.74405,-32.40227 -3.36433,-9.21167 -7.34087,-18.31453 -13.2266,-26.15875 -5.88574,-7.844214 -13.85202,-14.405434 -23.25375,-17.194902 -4.70086,-1.394734 -9.70948,-1.821419 -14.55,-1.038632 -4.84052,0.782787 -9.50342,2.793716 -13.26837,5.935141 -3.76495,3.141425 -6.60286,7.424533 -7.83556,12.170463 -1.2327,4.74593 -0.81865,9.93587 1.32947,14.3437 2.15825,4.42861 5.94516,7.91654 10.20524,10.39089 4.26007,2.47435 8.99718,4.00821 13.75639,5.28122 4.75921,1.27302 9.58869,2.3057 14.26072,3.86863 4.67203,1.56293 9.22762,3.69099 12.96185,6.90443 5.17447,4.45282 8.53664,10.92207 9.33262,17.70213 0.79598,6.78006 -0.95454,13.80816 -4.73238,19.49418 -3.77784,5.68601 -9.53647,10.0035 -16.01417,12.15807 -6.47771,2.15456 -13.6322,2.15482 -20.14966,0.12368 -6.04473,-1.88382 -11.49051,-5.45512 -16.00241,-9.89699 -4.51191,-4.44187 -8.12067,-9.73875 -11.07625,-15.33804 -5.91115,-11.19858 -9.23798,-23.54709 -13.8687,-35.33294 -5.04378,-12.83715 -11.72183,-25.28195 -13.60863,-38.944759 -0.9434,-6.831403 -0.62731,-13.924805 1.68965,-20.420169 2.31696,-6.495363 6.74474,-12.354175 12.77205,-15.705232 3.82606,-2.127208 8.14258,-3.193815 12.43638,-4.046492 4.29379,-0.852678 8.6465,-1.520069 12.78823,-2.937745 4.14174,-1.417675 8.12594,-3.664424 10.81721,-7.117074 1.34564,-1.726325 2.34451,-3.73792 2.79162,-5.880587 0.44712,-2.142666 0.32976,-4.416266 -0.44529,-6.463272 z"
         id="path6"
         inkscape:path-effect="#path-effect6"
         inkscape:original-d="m 160.37716,35.82894 c 12.79605,-8.815057 -23.31725,1.137427 -34.97587,1.70614 -11.65862,0.568714 -18.76754,15.923974 -28.15131,23.03289 -9.38377,7.108917 0,37.819437 0,57.15569 0,19.33625 4.54971,34.40716 5.97149,52.03727 1.42178,17.63011 73.93273,19.33625 111.75217,29.00438 37.81944,9.66813 -1.42178,-43.22221 -1.70614,-64.83332 -0.28436,-21.61111 -46.35014,-7.67763 -70.80481,-11.94298 -24.45467,-4.26535 33.26973,17.34576 51.1842,26.44517 17.91447,9.09941 -20.75804,32.98537 -31.56359,49.47806 -10.80555,16.49269 -27.29824,-40.37865 -40.94736,-60.56797 -13.64912,-20.18932 0.56871,-50.046773 0.85307,-75.07016 0.28436,-25.023386 25.5921,-17.630113 38.38815,-26.44517 z"
         transform="rotate(14.808322,-221.05293,816.72131)" />
      <path
         style="fill:#fb923c;fill-opacity:1"
         d="m 209.85522,203.88373 c -8.60905,-3.54383 -17.16048,-7.28474 -26.06695,-9.99571 -8.90647,-2.71096 -18.24269,-4.38042 -27.5245,-3.65765 -9.28182,0.72278 -18.53618,3.97604 -25.47957,10.17796 -3.4717,3.10096 -6.32975,6.91036 -8.1928,11.17623 -1.86305,4.26588 -2.71647,8.98887 -2.30853,13.62592 0.65012,7.3898 4.45414,14.23219 9.46275,19.70445 5.00862,5.47226 11.18667,9.72635 17.42333,13.74331 6.23665,4.01695 12.62192,7.87019 18.2436,12.7105 5.62168,4.84031 10.50849,10.79261 12.87908,17.82199 1.855,5.50052 2.09087,11.51457 0.82698,17.18019 -1.26389,5.66563 -4.00819,10.97482 -7.779,15.38817 -7.54163,8.8267 -19.04199,13.82304 -30.63074,14.52139 -11.58875,0.69835 -23.20712,-2.66369 -33.3132,-8.37805 -10.106077,-5.71436 -18.785292,-13.6999 -26.35402,-22.50337 -3.712316,-4.31793 -7.203063,-8.8853 -9.710024,-13.99813 -2.506962,-5.11283 -3.999254,-10.82568 -3.546553,-16.50203 0.452701,-5.67635 2.990125,-11.29709 7.437435,-14.8534 2.223655,-1.77815 4.891029,-3.01613 7.701516,-3.47179 2.810487,-0.45566 5.758666,-0.11631 8.354466,1.05343 3.072015,1.38433 5.560238,3.8771 7.324011,6.74812 1.763769,2.87102 2.845169,6.11357 3.603629,9.39662 1.51691,6.56609 1.8198,13.47019 4.42762,19.6842 1.68974,4.02637 4.35169,7.67439 7.82772,10.31712 3.47604,2.64272 7.77746,4.2458 12.1439,4.27734 4.36645,0.0315 8.76777,-1.55728 11.94781,-4.54964 3.18004,-2.99236 5.04986,-7.39386 4.76258,-11.75096 -0.21283,-3.22799 -1.56356,-6.32074 -3.52382,-8.89418 -1.96027,-2.57343 -4.5094,-4.65386 -7.25159,-6.37014 -5.48436,-3.43258 -11.73446,-5.45383 -17.3759,-8.62164 -7.48796,-4.20468 -13.80138,-10.42007 -18.323484,-17.72071 -4.522106,-7.30065 -7.264731,-15.66481 -8.178677,-24.20375 -1.827892,-17.07789 3.73551,-34.51588 13.706111,-48.50096 14.0862,-19.75776 36.10278,-32.53215 58.86183,-40.94736 13.96171,-5.16237 28.6574,-8.9376 43.54061,-8.67408 14.88321,0.26351 30.043,4.86618 41.13775,14.79018 5.54738,4.962 9.99664,11.19712 12.60074,18.16947 2.60409,6.97234 3.32612,14.6803 1.76588,21.95769 -1.56024,7.2774 -5.44074,14.08541 -11.10485,18.91373 -5.66411,4.82832 -13.10884,7.59823 -20.5476,7.35396 -6.51744,-0.21402 -12.7375,-2.63621 -18.76754,-5.11842 z"
         id="path8"
         inkscape:path-effect="#path-effect8"
         inkscape:original-d="m 209.85522,203.88373 c -6.25585,-1.70614 -59.7149,13.93348 -89.57235,21.32675 -29.85745,7.39327 38.67251,41.80043 58.00876,63.98025 19.33625,22.17982 -64.83332,11.08991 -97.24998,16.20833 -32.41666,5.11842 6.82456,-31.56359 10.23684,-47.77192 3.41228,-16.20833 10.23684,23.6016 15.35526,35.82894 5.11842,12.22734 24.45467,-0.85307 36.68201,-1.70614 12.22734,-0.85307 -18.76754,-15.92397 -28.15131,-23.88596 -9.38377,-7.96199 -8.24634,-59.99926 -12.79605,-90.42542 -4.549706,-30.42616 38.38815,-27.5826 58.86183,-40.94736 20.47368,-13.36476 45.49707,48.34063 67.39253,72.51095 21.89546,24.17032 -12.51169,-3.41228 -18.76754,-5.11842 z"
         transform="matrix(0.63686585,0.29315305,0.25182602,-0.74138156,29.755922,367.88509)" />
    </g>
  </g>
</svg>
